<?xml version="1.0" standalone="no"?>
<!DOCTYPE svg PUBLIC "-//W3C//DTD SVG 1.1//EN" "http://www.w3.org/Graphics/SVG/1.1/DTD/svg11.dtd" >
<svg xmlns="http://www.w3.org/2000/svg">
<metadata>
Created by FontForge 20120731 at Wed Oct 12 18:44:34 2016
 By admin
</metadata>
<defs>
<font id="iconfont" horiz-adv-x="1024" >
  <font-face 
    font-family="iconfont"
    font-weight="500"
    font-stretch="normal"
    units-per-em="1024"
    panose-1="2 0 6 3 0 0 0 0 0 0"
    ascent="896"
    descent="-128"
    x-height="792"
    bbox="0 -187 1025 896"
    underline-thickness="50"
    underline-position="-100"
    unicode-range="U+0078-E637"
  />
<missing-glyph horiz-adv-x="374" 
d="M34 0v682h272v-682h-272zM68 34h204v614h-204v-614z" />
    <glyph glyph-name=".notdef" horiz-adv-x="374" 
d="M34 0v682h272v-682h-272zM68 34h204v614h-204v-614z" />
    <glyph glyph-name=".null" horiz-adv-x="0" 
 />
    <glyph glyph-name="nonmarkingreturn" horiz-adv-x="341" 
 />
    <glyph glyph-name="x" unicode="x" horiz-adv-x="1001" 
d="M281 543q-27 -1 -53 -1h-83q-18 0 -36.5 -6t-32.5 -18.5t-23 -32t-9 -45.5v-76h912v41q0 16 -0.5 30t-0.5 18q0 13 -5 29t-17 29.5t-31.5 22.5t-49.5 9h-133v-97h-438v97zM955 310v-52q0 -23 0.5 -52t0.5 -58t-10.5 -47.5t-26 -30t-33 -16t-31.5 -4.5q-14 -1 -29.5 -0.5
t-29.5 0.5h-32l-45 128h-439l-44 -128h-29h-34q-20 0 -45 1q-25 0 -41 9.5t-25.5 23t-13.5 29.5t-4 30v167h911zM163 247q-12 0 -21 -8.5t-9 -21.5t9 -21.5t21 -8.5q13 0 22 8.5t9 21.5t-9 21.5t-22 8.5zM316 123q-8 -26 -14 -48q-5 -19 -10.5 -37t-7.5 -25t-3 -15t1 -14.5
t9.5 -10.5t21.5 -4h37h67h81h80h64h36q23 0 34 12t2 38q-5 13 -9.5 30.5t-9.5 34.5q-5 19 -11 39h-368zM336 498v228q0 11 2.5 23t10 21.5t20.5 15.5t34 6h188q31 0 51.5 -14.5t20.5 -52.5v-227h-327z" />
    <glyph glyph-name="uniE600" unicode="&#xe600;" 
d="M476 -26q-81 0 -157 29q-12 5 -17.5 17t-1 24.5t17 18t24.5 0.5q64 -25 134 -25q102 0 188.5 50.5t137 137t50.5 188.5t-50.5 189t-137 137t-188.5 50t-188.5 -50t-137 -137t-50.5 -189q0 -120 70 -218q8 -11 5.5 -24t-13 -20.5t-24 -5.5t-20.5 13q-82 114 -82 255
q0 90 35 171.5t94 140t140.5 93.5t171 35t171 -35t140 -93.5t93.5 -140t35 -171t-35 -171t-94 -140.5t-140 -94t-171 -35zM921 -109q-13 0 -23 10l-179 181q-9 9 -9 22.5t9.5 23t22.5 9t22 -9.5l180 -181q9 -10 9 -23t-9.5 -22.5t-22.5 -9.5z" />
    <glyph glyph-name="uniE601" unicode="&#xe601;" 
d="M505 -52q142 0 236.5 91t114.5 240q15 102 6 188t-27 149.5t-43.5 110.5t-42.5 70t-25 29q-18 -47 -38.5 -82.5t-40 -55t-37.5 -32t-36.5 -16t-29.5 -4t-23.5 1t-13.5 1.5q12 25 77 85l2 2q-1 0 -10 0.5t-24.5 -0.5t-37 -4t-48.5 -12t-55.5 -22.5t-62.5 -37.5t-66 -56
q-36 -35 -61.5 -77.5t-37.5 -83.5t-17 -74t-5 -66q0 -93 46.5 -173t126 -126t173.5 -46zM326 389l-2 -7q-2 -5 -4.5 -18.5t-3.5 -25.5t0.5 -26.5t7 -24.5t18 -16t30.5 -4q24 3 46 16t40 29.5t38 32.5t49 27t65 11q-2 -4 -6 -10t-13.5 -24t-17.5 -35t-15.5 -38.5t-9.5 -38.5
t3 -31.5t19 -21.5q20 -9 35 -11t29.5 4t23.5 12t28 22.5t33 25.5q-3 -19 -5.5 -35.5t-10.5 -40.5t-18.5 -42.5t-29.5 -37.5t-43 -31t-59.5 -18t-78.5 -3q-61 5 -110.5 28.5t-77.5 60t-36.5 80.5t11 94.5t65.5 96.5zM326 389z" />
    <glyph glyph-name="uniE602" unicode="&#xe602;" 
d="M511 732q109 0 201 -53t145.5 -144.5t53.5 -200.5t-53.5 -200.5t-145.5 -144.5t-201 -53t-201 53t-145.5 144.5t-53.5 200.5t53.5 200.5t145.5 144.5t201 53zM711 215l-178 106v234h-66v-265l208 -128zM955 657l-204 173l-58 -67l204 -172zM125 591l-58 66l204 168
l58 -66z" />
    <glyph glyph-name="uniE603" unicode="&#xe603;" 
d="M663 84q-3 11 -12 18t-21 7h-71v61q-28 -4 -55.5 -4t-55.5 4v-61h-71q-12 0 -21 -7t-12 -18l-25 -91q-4 -16 6 -29.5t26 -13.5h305q14 0 23.5 10t9.5 24q0 7 -2 13zM845 704q-14 4 -28 4q-6 0 -13 -1v90q0 13 -9.5 22.5t-22.5 9.5h-537q-13 0 -22.5 -9.5t-9.5 -22.5v-90
q-7 1 -13 1q-14 0 -28 -4q-55 -15 -81 -76t-7 -132q17 -62 59.5 -101.5t92.5 -39.5q3 0 9 1l8 -16l2 -2l12 -22l2 -2q7 -11 14 -21h1q15 -21 35 -39h1q8 -9 19 -17h1q42 -33 92 -48q13 -4 26 -7q14 -3 27 -4h1q14 -2 27.5 -2t27.5 2h1q13 1 27 4q13 3 25 6l1 1q50 15 92 48
h1q10 8 19 17h1q19 18 35 39h1q7 10 14 21l1 1l1 1q7 11 12 22q1 0 2 1v1l8 16q6 -1 9 -1q50 0 92.5 39.5t59.5 101.5q19 71 -7 132t-81 76zM126 510q-13 49 2 91t48 51q7 2 14 2q6 0 13 -2v-149q0 -13 1 -28v-3q1 -12 4 -25v-5q3 -13 5 -24q1 -1 1 -4q1 -4 2 -4
q-29 5 -54 32.5t-36 67.5v0zM668 571l-90 -67l33 -106q2 -7 -4 -12q-3 -2 -6 -2t-5 2l-93 64l-92 -64q-5 -4 -11 0.5t-4 11.5l32 106l-89 67q-6 5 -3.5 11.5t9.5 6.5l112 3l37 105q2 7 9.5 7t9.5 -7l37 -105l112 -3q7 0 9 -7t-3 -11zM881 510q-11 -40 -36 -67.5t-54 -32.5
l2 4q0 2 1 4q2 11 5 24v5q2 12 3 25q1 0 1 3q1 15 1 28v149q7 2 13 2q7 0 14 -2q33 -9 48 -51t2 -91zM881 510z" />
    <glyph glyph-name="uniE604" unicode="&#xe604;" 
d="M347 641l461 -267l-461 -267v534zM510.5 -116q-102.5 0 -195.5 39q-91 38 -160.5 108t-107.5 160q-40 93 -40 195.5t40 196.5q38 90 107.5 159.5t160.5 107.5q93 40 195.5 40t195.5 -40q11 -4 15.5 -15.5t0 -22.5t-15.5 -15.5t-23 0.5q-82 35 -172.5 35t-173 -35.5
t-142 -95t-94.5 -142t-35 -173t35 -172.5t94.5 -142t142 -95t173 -35t173 35t142 95t94.5 142t35 173q0 144 -84 260q-7 10 -5 22t12 19t21.5 5t18.5 -12q96 -131 96 -294q0 -103 -40 -196q-38 -90 -107.5 -160t-160.5 -108q-93 -39 -195.5 -39z" />
    <glyph glyph-name="uniE605" unicode="&#xe605;" 
d="M512 660q101 0 186.5 -50t135.5 -135.5t50 -186.5t-50 -186.5t-135.5 -135.5t-186.5 -50t-187 50t-135.5 135.5t-49.5 186.5t49.5 186.5t135.5 135.5t187 50zM903 66q54 94 59 202v6h-55q-2 -64 -24 -124q-12 -31 -27 -57zM962 285v3q0 109 -49 205l-49 -25
q43 -85 43 -180v-2h55v-1zM883 543q-67 98 -174 150l-24 -49q94 -46 153 -132zM655 715q-69 23 -143 23h-11h-4h-5h-3h-3l-3 -1h-3h-3h-3l-2 -1h-3h-3h-3h-3l-3 -1h-3l-2 -1h-3l-3 -1h-3h-2l-3 -1h-3l-3 -1h-3l-3 -1l10 -54h1l3 1h2l2 1h3l2 1h2h3l2 1h3h2l3 1h2h3l3 1h2h2
l3 1h5h3h2h3h5h2h13q66 0 126 -20zM369 715q-112 -37 -192 -126l41 -37q71 79 169 111zM141 543q-67 -98 -78 -216l55 -5q8 103 68 190zM62 269q5 -118 68 -220l46 29q-55 88 -59 193zM164 2q76 -92 187 -135l19 52q-98 38 -164 118zM407 -150h1l2 -1h3l3 -1l2 -1h3l3 -1h2
l3 -1h3l3 -1h3l2 -1h3l3 -1h3l3 -1h2h3h3l3 -1h3l2 -1h3h3h3l3 -1h3h3h3h2h3h9l3 -1h12l3 1h8h3h3h3h3h3l3 1h2h3h3l3 1h2l3 1h3h3l3 1h3h3l2 1h3l3 1h3l3 1h2l3 1h3l3 1h2l3 1l2 1h3l3 1l3 1h3l2 1l3 1l2 1h3l3 1h1l-15 53h-1l-2 -1l-2 -1h-3l-3 -1l-2 -1h-2l-2 -1l-3 -1
h-2l-2 -1h-3l-2 -1h-3l-2 -1h-3l-4 -1h-3l-2 -1h-3h-2l-2 -1h-3l-2 -1h-3h-3h-2l-3 -1h-2h-3h-2l-3 -1h-2h-2h-3h-3h-2h-5l-3 -1h-20l-3 1h-5h-2h-3h-2h-3h-2l-3 1h-3h-2h-2l-3 1h-3h-2h-3l-2 1h-3l-2 1h-2h-3l-2 1h-3l-4 1h-3l-2 1l-3 1h-2h-3l-2 1h-2l-3 1h-1zM691 -125
q109 47 181 142l-44 33q-63 -84 -159 -125zM660 397q1 14 1 23q0 54 -28 85t-85 38v40h-57v-40q-62 -7 -93 -38t-31 -87q0 -37 14 -68q14 -29 35 -46q19 -16 76 -52q34 -21 40 -39q6 -19 6 -59q0 -16 -6 -24.5t-19 -8.5q-14 0 -18 12q-4 11 -4 61v30h-123v-24q0 -82 37 -115
q36 -33 86 -38v-47h57v46q63 9 95 46q31 38 31 103q0 40 -12 69q-12 27 -28 42t-64 44q-55 33 -66 45q-12 11 -12 40q0 18 6 26q5 9 17 9q13 0 18 -10q4 -11 4 -43v-20h123z" />
    <glyph glyph-name="uniE606" unicode="&#xe606;" horiz-adv-x="1060" 
d="M799 866h7q5 -4 20 -11.5t22 -14.5q0 -22 -2 -45q-4 -1 -13.5 -5t-11.5 -4h-14h-14l-26 42q3 1 12.5 5.5t12.5 5.5l4 14q2 10 3 13zM553 796q1 2 6 23.5t16 26.5q7 -3 13.5 -9t14 -15t11.5 -13q30 2 58 2q-4 -20 -26 -54q15 -37 16 -56q-29 4 -56 9q-5 -3 -20.5 -15
t-26.5 -13q-9 6 -10 28t-2 25q-29 19 -48 36q24 12 54 25zM179 740q7 9 17 34t22 39t33 11q9 -11 17 -24.5t16.5 -31.5t12.5 -27q11 -2 31.5 -4t37 -5t29.5 -9q8 -18 -2 -33.5t-31.5 -32t-27.5 -24.5q0 -4 7.5 -42t2.5 -58q-11 -8 -27 -4.5t-26.5 9t-26 15t-25.5 12.5
q-10 -3 -25.5 -12t-25.5 -15.5t-26 -10t-27 3.5q-5 22 -3.5 34t6.5 34t6 34q-5 4 -22 19t-27 25.5t-18 22.5q1 21 18.5 28t45.5 8t38 4zM849 676q33 -29 71 -27q-4 -6 -10.5 -17t-8.5 -15q8 -27 11 -37q-30 12 -72 -13q-1 4 -2.5 17t-2.5 17q-10 9 -31 26q20 9 36 16z
M602 543q9 6 15.5 22t15 27.5t22.5 13.5q8 -9 13.5 -18t13.5 -25.5t10 -19.5q8 -3 25.5 -4t30.5 -4.5t20 -13.5q-4 -12 -12 -21.5t-20.5 -20t-17.5 -16.5q1 -7 4.5 -23.5t4 -24.5t-0.5 -24q-8 -6 -20 -3t-19.5 7t-19 10.5t-18.5 8.5q-50 -25 -65 -30q-13 7 -14 20.5t4.5 32
t4.5 26.5q-4 7 -20 19t-23 23.5t0 25.5q12 3 34.5 6t31.5 6zM294 333q12 22 31.5 61t36 71.5t31.5 59.5q5 -2 21 -8q20 -35 54 -103t41 -81q28 -4 94 -13t101 -15q19 -2 29 -20q-29 -30 -87 -84.5t-71 -66.5q3 -15 17 -91t19 -117q-2 -2 -8 -6t-8 -5q-39 15 -107 51t-86 45
q-23 -11 -87.5 -45t-101.5 -50q-10 3 -23 7q6 31 12 66.5t14 78.5t12 66q-150 143 -158 151q2 2 8 8.5t8 8.5q38 8 109 17.5t99 13.5zM900 420q10 18 19 33q12 -17 22 -33q6 -1 18.5 -3.5t18.5 -3.5q-27 -28 -25 -70q-26 21 -69 0q0 5 0.5 19t0.5 19q-12 16 -23 32
q19 3 38 7zM818 170q7 9 15.5 32t19.5 37t29 14q6 -9 43 -82q11 -4 34 -5t40 -5.5t26 -18.5q-7 -12 -18.5 -24t-26.5 -25t-22 -21q0 -11 5.5 -32.5t7 -33.5t-4.5 -32q-15 -1 -31 5t-34.5 17.5t-28.5 15.5q-11 -4 -29.5 -15.5t-34.5 -18t-31 -3.5q-5 20 -3.5 32t6.5 33t6 33
q-56 53 -68 67q8 15 25 20.5t40.5 6t34.5 3.5z" />
    <glyph glyph-name="uniE607" unicode="&#xe607;" 
d="M258 407l38 87q14 32 46 33t48 -30q41 -81 67 -133l82 246q6 17 19 27.5t30 10.5q16 1 29.5 -8.5t20.5 -26.5q52 -130 72 -181l33 40q15 18 37.5 19t38.5 -16q52 -56 63 -68h44q27 61 27 138q0 112 -71 191t-171 79q-59 0 -112 -29t-87 -77q-33 48 -86.5 77t-111.5 29
q-101 0 -172 -79t-71 -191q0 -77 27 -138h160zM512 709zM785 348l-51 -62q-20 -24 -48 -19t-40 35q-30 75 -53 131q-28 -84 -77 -229q-5 -17 -17.5 -27t-28 -11.5t-29 6.5t-21.5 23q-47 94 -73 145l-8 -18q-7 -15 -20 -24t-28 -9h-113q24 -28 97 -106q60 -65 119.5 -126.5
t88.5 -90.5l29 -30q101 101 238 247q73 79 98 108q-14 4 -24 14l-2 3q-3 3 -7 7.5t-9 9.5l-11 11q-6 6 -10 12zM972 361h-110q-8 0 -14 7l-71 74q-2 3 -6 3t-6 -3l-58 -70q-7 -8 -18 -6.5t-15 12.5l-87 217q-3 8 -9 7.5t-9 -8.5l-100 -298q-4 -12 -17 -13t-19 10l-92 182
q-3 6 -8.5 6t-8.5 -7l-44 -101q-6 -12 -18 -12h-210q-4 0 -7 -3.5t-3 -9t3 -9.5t7 -4h228q6 0 9 7l28 63q5 11 17 11.5t18 -10.5l95 -189q3 -6 9 -6q6 1 9 8l97 290q4 13 18 13t19 -12l76 -190q2 -7 7 -7q5 -1 8 3l68 82q5 6 14 6.5t15 -5.5l57 -61q3 -3 6 -3h122q4 0 7 4
t3 9.5t-3 9t-7 3.5z" />
    <glyph glyph-name="uniE608" unicode="&#xe608;" 
d="M862 650h-207l113 85q16 12 19 32.5t-9.5 37t-32.5 19.5t-37 -10l-194 -145l-193 145q-17 13 -37.5 10t-32.5 -19.5t-9 -37t19 -32.5l113 -85h-207q-42 0 -71 -29t-29 -70v-497q0 -41 29 -70t71 -29h695q41 0 70.5 29t29.5 70v497q0 41 -29.5 70t-70.5 29zM671 274
l-215 -143q-17 -11 -29 -4.5t-12 26.5v298q0 21 12 27t29 -5l215 -143q17 -12 17 -28t-17 -28z" />
    <glyph glyph-name="uniE609" unicode="&#xe609;" 
d="M466 -23q-45 40 -94 83q-50 44 -92 80q-50 42 -99 83q-10 -1 -20 -1q-7 -1 -16 -1h-15q-23 0 -38 14.5t-15 34.5v219h1l-1 1q0 24 15.5 39.5t37.5 15.5h50q80 68 145 122q28 23 54.5 45.5t48.5 40.5t36.5 30t18.5 15q26 19 42 17.5t25 -15.5t12.5 -34t3.5 -37v-703
q0 -17 -6 -35.5t-18.5 -29.5t-31.5 -9t-44 25v0zM746 493q18 -25 29 -50.5t11 -62.5q0 -35 -11.5 -62.5t-28.5 -50.5q-7 -9 -14.5 -16.5t-20.5 -7.5q-15 0 -26 11t-11 27q0 7 3 14h-1q4 10 10 18.5t12 17.5t9.5 21t3.5 28t-3.5 27.5t-9.5 21t-12 18.5t-9 18q-3 6 -3 14
q0 16 11 27t26 11q13 0 20.5 -7t14.5 -17zM795 103q-11 -8 -25 -8q-17 0 -29.5 12.5t-12.5 30.5q0 19 15 32q0 1 1 1.5t2 1.5h1q24 17 45 39.5t36.5 49t24.5 56.5t9 62q0 65 -33 119t-83 89q-18 13 -18 35q0 17 12.5 29.5t29.5 12.5q15 0 27 -9q32 -23 59.5 -53t47.5 -65
t31.5 -75t11.5 -83t-11.5 -83t-32 -75.5t-48 -65.5t-60.5 -53zM795 103z" />
    <glyph glyph-name="uniE60A" unicode="&#xe60a;" 
d="M32 329q-13 23 -13.5 55.5t13.5 54.5q3 7 9.5 19t29.5 46t49 65t68.5 69t88.5 65.5t108 46t127 18.5t127 -18t108.5 -47t87.5 -64t69 -70.5t48.5 -64.5t29.5 -47l10 -18q13 -23 13.5 -55.5t-13.5 -54.5q-3 -7 -9.5 -19t-29.5 -46t-49 -65t-68.5 -69t-88.5 -65.5t-108 -46
t-127 -18.5t-127 18.5t-108 46t-88.5 65.5t-68.5 69t-49 65t-29.5 46t-9.5 19zM512 128q106 0 181 75t75 181t-75 181t-181 75t-181 -75t-75 -181t75 -181t181 -75zM512 384zM320 384q0 79 56.5 135.5t135.5 56.5t135.5 -56.5t56.5 -135.5t-56.5 -135.5t-135.5 -56.5
t-135.5 56.5t-56.5 135.5z" />
    <glyph glyph-name="uniE60B" unicode="&#xe60b;" 
d="M96 736h-16q-20 0 -34 14t-14 34t14 34t34 14h128q20 0 34 -14t14 -34t-14 -34t-34 -14h-16v-815q0 -20 -14 -34t-34 -14t-34 14t-14 34v815zM256 640q0 27 18.5 45.5t45.5 18.5h640l-128 -256l128 -256h-640q-27 0 -45.5 18.5t-18.5 45.5v384z" />
    <glyph glyph-name="uniE60C" unicode="&#xe60c;" 
d="M503 896q-99 0 -175.5 -49.5t-116.5 -132.5t-40 -185q0 -57 29.5 -128.5t73.5 -134t91 -116t85 -85t53.5 -31.5t53.5 31.5t85 85t91 116t73.5 134t29.5 128.5q0 102 -40 185t-117 132.5t-176 49.5zM503.5 418q-60.5 0 -103 42.5t-42.5 102.5t42.5 102.5t103 42.5
t103 -42.5t42.5 -102.5t-42.5 -102.5t-103 -42.5zM247 154q-196 -42 -196 -128q0 -47 62 -82.5t166 -53.5t233 -18t233 18t166 53.5t62 82.5q0 90 -210 131q-14 3 -25.5 -5t-14 -22t5.5 -25.5t22 -14.5q46 -8 82.5 -21t54.5 -24t18 -19q0 -5 -19 -19q-30 -20 -81 -34
q-119 -34 -292 -34q-177 0 -292 34q-51 14 -82 34q-21 13 -21 19q0 7 16.5 17.5t50 22.5t75.5 21q14 3 22 15t4 26q-2 14 -13.5 21.5t-26.5 4.5z" />
    <glyph glyph-name="uniE60D" unicode="&#xe60d;" 
d="M965 553q-29 79 -84 143q-13 17 -34 18.5t-37.5 -12t-18 -35t11.5 -37.5q90 -106 90 -246q0 -103 -51 -191t-139 -139t-191 -51t-191 51t-139 139t-51 191t51 191t139 139t191 51q91 0 172 -40q19 -10 39 -3.5t29.5 25.5t3 39t-25.5 30q-102 52 -218 52q-98 0 -188 -38
q-87 -37 -154 -104t-104 -154q-38 -90 -38 -188t38 -188q37 -87 104 -154t154 -104q90 -38 188 -38t188 38q87 37 154 104t104 154q38 90 38 188q0 88 -31 169zM626 609q-38 -4 -71 -27q-9 -6 -26 -21l-16 -16q-19 20 -20 21q-36 34 -82 42q-26 4 -50 2q-34 -2 -65 -21
q-21 -12 -36 -26q-35 -35 -46 -84q0 -1 -4 -22v-29q4 -21 4 -22q8 -38 32 -67q20 -25 64 -61q9 -8 25.5 -22t21.5 -18q12 -10 36.5 -31t37.5 -31q8 -8 24 -22t24 -20q5 -5 15.5 -13.5t13.5 -11.5q1 0 4 -4h3q46 40 50 43q12 10 36 30.5t37 31.5l24 21l24 21q5 4 28.5 23.5
t35.5 30.5q35 30 49 60q14 28 16 53l2 2v44q-6 23 -7 25q-7 27 -27 55q-30 40 -80 58q-34 11 -77 6z" />
    <glyph glyph-name="uniE60E" unicode="&#xe60e;" 
d="M749 383q0 51 -25.5 94.5t-67.5 68.5q-8 4 -13 4q-9 0 -16 -7t-7 -16q0 -13 12 -20q33 -18 52.5 -51.5t19.5 -72.5q0 -40 -20.5 -73.5t-54.5 -51.5q-10 -7 -10 -20q0 -9 6.5 -15.5t15.5 -6.5l12 3q44 25 70 68.5t26 95.5zM723 660q-8 4 -13 4q-10 0 -16.5 -6.5
t-6.5 -15.5q0 -13 13 -20q63 -37 100 -100.5t37 -138.5t-37 -138.5t-100 -99.5q-13 -8 -13 -21q0 -9 6.5 -15.5t15.5 -6.5q6 0 13 4q73 43 116.5 116.5t43.5 160.5t-43 160.5t-116 116.5zM189 539h111q29 0 137 78q24 18 50 38v-293q0 -9 6.5 -15.5t16 -6.5t16 6.5t6.5 15.5
v20v48v64v70q0 36 -0.5 65t-0.5 47v18q0 17 -15.5 24.5t-28.5 -2.5l-1 -2q-2 -1 -4.5 -3t-6.5 -5t-9 -6.5t-10.5 -8t-11.5 -9.5t-12.5 -9.5t-14 -10.5t-14.5 -11q-82 -60 -104 -67h-96h-1h-49q-9 0 -16 -6.5t-7 -15.5v-357q0 -10 7 -16.5t16 -6.5h164q21 -7 94 -67
q17 -14 75 -64q8 -6 18 -6q6 0 11 2q16 7 16 25v125v1v1q0 8 -6.5 14.5t-15.5 6.5t-16 -7t-7 -16l1 -82q-20 17 -39 33q-62 49 -88.5 64t-40.5 15h-1v0h-1h-123q-11 0 -15 4t-4 16v274q0 10 2.5 14t11.5 4z" />
    <glyph glyph-name="uniE60F" unicode="&#xe60f;" 
d="M907 496q-8 26 -39 38q-65 25 -187 69q-79 106 -122 161q-18 23 -47 23q-27 0 -44 -22q-43 -54 -125 -162q-119 -43 -187 -69q-29 -11 -38 -38t9 -54q38 -60 111 -166q2 -132 5 -202q1 -35 22 -51q14 -10 32 -10q12 0 24 4q66 18 190 56q123 -38 191 -57q8 -3 15 1.5
t9.5 12.5t-1.5 15t-12 9q-36 10 -195 59q-6 2 -12 0q-83 -26 -196 -57q-15 -5 -21 -1q-6 5 -6 20q-5 113 -5 207q-1 7 -4 12q-56 78 -114 170q-7 11 -4 20q3 8 15 13q34 13 191 70q5 2 9 7q71 94 128 166q5 7 13 7q10 0 16 -8q82 -106 125 -165q3 -5 9 -7l8 -3q7 -2 19 -6.5
t27.5 -10t33.5 -12.5t36 -13l36 -14q18 -6 32 -12q13 -5 15 -12t-3 -14q-115 -177 -116 -177q-3 -5 -4 -10l-3 -128q0 -9 5.5 -15t14.5 -6q8 0 14 5.5t6 13.5l3 123q84 127 113 171q16 24 8 49z" />
    <glyph glyph-name="uniE610" unicode="&#xe610;" 
d="M512 163l-1 1h-1l-210 218l52 55l160 -166l160 166l52 -54z" />
    <glyph glyph-name="uniE611" unicode="&#xe611;" 
d="M512 521l1 -1h1l210 -218l-52 -55l-160 166l-160 -166l-52 54z" />
    <glyph glyph-name="uniE612" unicode="&#xe612;" 
d="M729 73q0 39 27.5 66t66 27t65.5 -27t27 -65.5t-27 -66t-65.5 -27.5t-66 27.5t-27.5 65.5zM574 693q0 39 27 66t66 27t66 -27t27 -65.5t-27 -66t-66 -27.5t-66 27.5t-27 65.5zM109 213q0 64 45.5 109.5t109.5 45.5t109.5 -45.5t45.5 -110t-45.5 -109.5t-109.5 -45
t-109.5 45t-45.5 110zM47 213q0 -90 63.5 -153.5t153.5 -63.5q63 0 115 32.5t79 86.5l209 -36v-6q0 -64 45.5 -109.5t109.5 -45.5t109.5 45.5t45.5 109.5t-45.5 109.5t-109.5 45.5q-46 0 -83.5 -24.5t-56.5 -64.5l-204 36q3 18 3 38q0 84 -57 146l188 189q27 -10 55 -10
q64 0 109.5 45.5t45.5 109.5t-45.5 109.5t-109.5 45.5t-109.5 -45.5t-45.5 -109.5q0 -65 47 -111l-184 -183q-51 31 -111 31q-90 0 -153.5 -64t-63.5 -153zM47 213z" />
    <glyph glyph-name="uniE613" unicode="&#xe613;" 
d="M847 53q0 -25 -11 -46t-30 -38q-19 -16 -45 -26q-26 -9 -55 -9h-388q-29 0 -55 9q-26 10 -45 26q-19 17 -30 38t-11 46v661q0 25 11 47t30 38t45 25q26 10 55 10h388q29 0 55 -10q26 -9 45 -25t30 -38t11 -47v-661zM758 667h-494v-566h494v566zM511 73q-22 0 -39 -14
q-17 -15 -17 -37q0 -21 17 -36t39 -15q24 0 40.5 15t16.5 36q0 22 -16 37q-17 14 -41 14zM599 751q0 8 -5.5 12.5t-12.5 4.5h-138q-6 0 -12 -4.5t-6 -12.5t6 -12q5 -5 12 -5h138q7 0 12.5 4.5t5.5 12.5z" />
    <glyph glyph-name="uniE614" unicode="&#xe614;" 
d="M230 366q0 -43 26 -99.5t65.5 -105.5t91.5 -83.5t100 -34.5t100.5 34.5t91.5 83.5t65 105.5t26 99.5v244q-93 0 -158 24t-125 71q-60 -47 -125 -71t-158 -24v-244zM404 426l73 -71q42 36 83 69q28 22 39 30q23 17 40 29q58 41 90 61l23 -31q-22 -13 -71 -60
q-26 -25 -44 -44q-23 -24 -52 -58q-63 -74 -114 -146l-153 152zM512 838q-85 -65 -175.5 -98.5t-221.5 -33.5v-343q0 -48 23 -109.5t63.5 -120.5t90 -109.5t108 -81.5t112.5 -31t112.5 31t108 81.5t90 109.5t63.5 120.5t23 109.5v343q-131 0 -221.5 33.5t-175.5 98.5z
M852 365q0 -52 -31 -119.5t-78.5 -127t-110.5 -100.5t-120 -41t-120 41t-110.5 100.5t-78.5 127t-31 119.5v294q112 0 189.5 28.5t150.5 84.5q73 -56 150.5 -84.5t189.5 -28.5v-294z" />
    <glyph glyph-name="uniE615" unicode="&#xe615;" 
d="M385 716h-180l-142 -224h232zM664 492l-90 224h-124l-99 -224h313zM961 492l-142 224h-180l90 -224h232zM63 459l422 -404l-190 404h-232zM355 459l159 -404l155 404h-314zM540 54l421 405h-232z" />
    <glyph glyph-name="uniE616" unicode="&#xe616;" 
d="M960 532v125q0 44 -31.5 75.5t-76.5 31.5h-680q-45 0 -76.5 -31.5t-31.5 -75.5v-125q41 -20 65.5 -58.5t24.5 -85.5t-24.5 -85.5t-65.5 -58.5v-125q0 -44 31.5 -75.5t76.5 -31.5h680q45 0 76.5 31.5t31.5 75.5v125q-41 20 -65.5 58.5t-24.5 85.5t24.5 85.5t65.5 58.5z
M709 289q0 -11 -8 -18.5t-19 -7.5h-340q-11 0 -19 7.5t-8 18.5v18q0 11 8 19t19 8h340q11 0 19 -8t8 -19v-18zM709 469q0 -12 -8 -19.5t-19 -7.5h-340q-11 0 -19 7.5t-8 19.5v17q0 12 8 19.5t19 7.5h340q11 0 19 -7.5t8 -19.5v-17z" />
    <glyph glyph-name="uniE617" unicode="&#xe617;" 
d="M927 559q-34 81 -96.5 143.5t-143.5 96.5q-83 36 -175 36t-175 -36q-81 -34 -143.5 -96.5t-96.5 -143.5q-36 -83 -36 -175t36 -175q34 -81 96.5 -143.5t143.5 -96.5q83 -36 175 -36t175 36q81 34 143.5 96.5t96.5 143.5q36 83 36 175t-36 175zM512 -15q-93 0 -177 41
q45 19 97 28q9 1 15 8t7 16v2v61q0 17 -16 24q-55 24 -88 76t-33 115q0 85 57 145.5t138 60.5t138 -60.5t57 -145.5q0 -63 -33 -115t-88 -76q-16 -7 -16 -24v-61v-2q1 -9 7 -16t15 -8q52 -9 97 -28q-84 -41 -177 -41zM741 57q-53 29 -120 43v25q58 30 95 86q42 66 42 145
q0 106 -71 181q-73 76 -175 76t-175 -76q-71 -75 -71 -181q0 -79 42 -145q37 -56 95 -86v-25q-67 -14 -120 -43q-79 56 -124.5 142t-45.5 185q0 108 53.5 200t145.5 145.5t200 53.5t200 -53.5t145.5 -145.5t53.5 -200q0 -99 -45.5 -185t-124.5 -142z" />
    <glyph glyph-name="uniE618" unicode="&#xe618;" 
d="M927 559q-34 81 -96.5 143.5t-143.5 96.5q-83 36 -175 36t-175 -36q-81 -34 -143.5 -96.5t-96.5 -143.5q-36 -83 -36 -175t36 -175q34 -81 96.5 -143.5t143.5 -96.5q83 -36 175 -36t175 36q81 34 143.5 96.5t96.5 143.5q36 83 36 175t-36 175zM741 57q-53 29 -120 43v25
q58 30 95 86q42 66 42 145q0 106 -71 181q-73 76 -175 76t-175 -76q-71 -75 -71 -181q0 -79 42 -145q37 -56 95 -86v-25q-67 -14 -120 -43q-79 56 -124.5 142t-45.5 185q0 108 53.5 200t145.5 145.5t200 53.5t200 -53.5t145.5 -145.5t53.5 -200q0 -99 -45.5 -185
t-124.5 -142z" />
    <glyph glyph-name="uniE619" unicode="&#xe619;" 
d="M927 559q-34 81 -96.5 143.5t-143.5 96.5q-83 35 -175 35t-175 -35q-81 -34 -143.5 -96.5t-96.5 -143.5q-35 -83 -35 -175t35 -175q34 -81 96.5 -143.5t143.5 -96.5q83 -35 175 -35t175 35q81 34 143.5 96.5t96.5 143.5q35 83 35 175t-35 175zM512 783q150 0 263 -100
l-121 -120q-64 43 -142 43q-105 0 -179 -74t-74 -179q0 -77 44 -142l-90 -90q-100 113 -100 263q0 108 53.5 200t145.5 145.5t200 53.5zM249 85l87 87q26 -26 58 -42v-35q-58 -14 -105 -42q-21 15 -40 32zM340 248q-30 49 -30 105q0 84 59.5 143t142.5 59q57 0 105 -30z
M342 23q38 17 82 26q9 2 15 9t6 16v72q0 15 -14 22q-1 1 -2 1q-32 14 -57 39l285 285q57 -58 57 -140q0 -59 -32.5 -109.5t-86.5 -74.5l-4 -2q-12 -7 -12 -21v-72q0 -8 5.5 -15t14.5 -9q0 -1 1 -1q44 -9 82 -26q-81 -38 -170 -38t-170 38zM735 53q-47 28 -105 42v35
q62 32 98.5 92.5t36.5 130.5q0 103 -71 176l117 118q100 -113 100 -263q0 -101 -47.5 -188.5t-128.5 -142.5z" />
    <glyph glyph-name="uniE61A" unicode="&#xe61a;" 
d="M513.5 -11q-6.5 0 -12.5 3q-108 68 -216 164q-95 84 -150 160q-71 98 -71 180q0 53 16 102q16 52 47 91q33 42 79 65q50 25 109 25q96 0 167 -73q17 -17 30 -37q14 20 29 36q70 74 170 74q58 0 107 -24q45 -23 78 -65q64 -80 64 -194q0 -83 -70 -181q-55 -77 -150 -160
q-107 -95 -214 -163q-6 -3 -12.5 -3zM315 733q-95 0 -152 -72q-53 -68 -53 -165q0 -125 205 -306q92 -81 198 -151q106 70 197 150q204 181 204 307q0 61 -22 114t-69.5 88t-111.5 35q-35 0 -66.5 -12.5t-50 -28.5t-34 -36t-19.5 -28.5t-6 -12.5q-6 -15 -21 -15t-22 13
q-14 31 -44 62q-57 58 -133 58z" />
    <glyph glyph-name="uniE61B" unicode="&#xe61b;" 
d="M896 690q-33 42 -78 65q-49 24 -107 24q-100 0 -170 -74q-15 -16 -29 -36q-13 20 -30 37q-71 73 -167 73q-59 0 -109 -25q-46 -23 -79 -65q-31 -39 -47 -91q-16 -49 -16 -102q0 -82 71 -180q55 -76 150 -160q108 -96 216 -164q6 -3 12.5 -3t12.5 3q107 68 214 163
q95 83 150 160q70 98 70 181q0 114 -64 194z" />
    <glyph glyph-name="uniE61C" unicode="&#xe61c;" 
d="M410 -28q-5 0 -9 2q-14 6 -14 20l-6 139h-169q-62 0 -106 44t-44 106v362v1q0 62 44 106t106 44h600q62 0 106 -44t44 -107v-362q0 -62 -44 -106t-106 -44h-206l-181 -155q-7 -6 -15 -6zM108 645v-362q0 -43 30.5 -73.5t73.5 -30.5h191q9 0 16 -6.5t7 -15.5l5 -113
l151 130q7 5 15 5h215q43 0 73.5 30.5t30.5 73.5v362q0 43 -30.5 74t-73.5 31h-600q-43 0 -73.5 -31t-30.5 -74zM512 366q-34 0 -58.5 24.5t-24.5 58.5t24.5 58.5t58.5 24.5t58.5 -24.5t24.5 -58.5t-24.5 -58.5t-58.5 -24.5zM512 486q-15 0 -26 -11t-11 -26t11 -26t26 -11
t26 11t11 26t-11 26t-26 11zM288 366q-34 0 -58.5 24.5t-24.5 58.5t24.5 58.5t58.5 24.5t58.5 -24.5t24.5 -58.5t-24.5 -58.5t-58.5 -24.5zM288 486q-15 0 -26 -11t-11 -26t11 -26t26 -11t26 11t11 26t-11 26t-26 11zM736 366q-34 0 -58.5 24.5t-24.5 58.5t24.5 58.5
t58.5 24.5t58.5 -24.5t24.5 -58.5t-24.5 -58.5t-58.5 -24.5zM736 486q-15 0 -26 -11t-11 -26t11 -26t26 -11t26 11t11 26t-11 26t-26 11z" />
    <glyph glyph-name="uniE61D" unicode="&#xe61d;" 
d="M812 796h-600q-62 0 -106 -44t-44 -106v-1v-362q0 -62 44 -106t106 -44h169l6 -139q0 -14 14 -20q4 -2 9 -2q8 0 15 6l181 155h206q62 0 106 44t44 106v362q0 63 -44 107t-106 44zM288 366q-34 0 -58.5 24.5t-24.5 58.5t24.5 58.5t58.5 24.5t58.5 -24.5t24.5 -58.5
t-24.5 -58.5t-58.5 -24.5zM512 366q-34 0 -58.5 24.5t-24.5 58.5t24.5 58.5t58.5 24.5t58.5 -24.5t24.5 -58.5t-24.5 -58.5t-58.5 -24.5zM736 366q-34 0 -58.5 24.5t-24.5 58.5t24.5 58.5t58.5 24.5t58.5 -24.5t24.5 -58.5t-24.5 -58.5t-58.5 -24.5z" />
    <glyph glyph-name="uniE61E" unicode="&#xe61e;" 
d="M893 311h-204v287q0 25 -18.5 43t-43.5 18h-228q-26 0 -44 -18t-18 -43v-78h-208q-26 0 -45 -19t-19 -45v-457q0 -26 19 -45t45 -19h208h6h336h10h204q27 0 46 19t19 46v246q0 27 -19 46t-46 19zM337 -13h-208q-5 0 -8.5 3.5t-3.5 8.5v457q0 5 3.5 8.5t8.5 3.5h208v-481z
M637 -13h-248v611q0 4 3 7t7 3h228q4 0 7 -3t3 -7v-611zM907 0q0 -5 -4 -9t-10 -4h-204v273h204q6 0 10 -4t4 -10v-246zM240 581h-52l7 8l10 10l14 12q7 7 11 12.5t6 14.5q1 5 1 11t-2 12.5t-7 12.5t-12.5 9.5t-17.5 3.5q-11 0 -19 -4t-12.5 -10t-6 -12t-2 -10.5t-1.5 -9.5
h25l1 8q0 5 4 9.5t9.5 4.5t9 -2t5 -5.5t1.5 -7.5q0 -5 -2 -8.5t-5.5 -8t-8.5 -8.5l-11 -10q-6 -5 -12 -11.5t-9.5 -11t-6.5 -9.5v-24h83v24zM830.5 380q-2.5 -3 -6.5 -4t-8 -1q-7 0 -10.5 3t-4.5 7.5t-1.5 7t-0.5 5.5h-24l1 -9q0 -6 3 -14t9 -14t15 -8.5t20 -0.5q10 1 18 5
t13 12t6 21q0 10 -3.5 17t-7.5 10t-8 5l5 4q4 2 6.5 8t3.5 13q0 6 -2 11.5t-6.5 11.5t-13.5 9.5t-18 3.5q-12 -1 -20 -5.5t-12.5 -12.5t-5.5 -13.5t-1 -10.5h24v5q0 4 2.5 7.5t6 5t7.5 1.5t7.5 -2t5.5 -5q1 -3 1 -7t-3 -8.5t-7 -5.5t-7 -1h-6v-22h8q4 1 9.5 -2.5t7.5 -7.5
q2 -5 1 -10.5t-3.5 -8.5zM513 701h24v129l-21 1l-2 -4q-1 -2 -3.5 -4t-4.5 -2h-6h-10v-22h23v-98z" />
    <glyph glyph-name="uniE61F" unicode="&#xe61f;" 
d="M415 369q-7 0 -12 5.5t-5 13t5 12.5t12 5h113v22q-1 3 -2 5l-104 111q-5 6 -5 13.5t5 13t12.5 5.5t12.5 -6l99 -106l99 106q5 6 12.5 6t12.5 -5.5t5 -13t-5 -13.5l-105 -111q0 -2 -1 -5v-22h112q7 0 12.5 -5t5.5 -12.5t-5.5 -13t-12.5 -5.5h-112v-42h112q7 0 12.5 -5
t5.5 -12.5t-5.5 -13t-12.5 -5.5h-112v-78q0 -7 -5.5 -12.5t-13 -5.5t-12.5 5.5t-5 12.5v78h-113q-7 0 -12 5.5t-5 13t5 12.5t12 5h113v42h-113zM924 223q-31 -74 -88.5 -132t-132.5 -89q-77 -33 -162 -33t-162 33q-56 23 -103 62h62q93 -59 203 -59q103 0 190.5 51
t138.5 139t51 191t-51 190.5t-138.5 138.5t-190.5 51t-190.5 -51t-138.5 -138.5t-51 -190.5h-36q0 84 33 162q31 75 89 132.5t132 89.5q77 33 162 33t162 -33q74 -32 132 -89.5t89 -132.5q33 -78 33 -162.5t-33 -162.5zM233 332q-12 12 0 24q5 4 11.5 4t11.5 -5l90 -95v-1
l1 -1l2 -3q1 -3 1 -6t-1 -6q0 -1 -2 -3q0 -1 -0.5 -1.5t-0.5 -1.5l-90 -95q-5 -5 -11.5 -5t-11.5 5q-12 12 0 23l63 67h-214q-7 0 -11.5 5t-4.5 12t4.5 11.5t11.5 4.5h214z" />
    <glyph glyph-name="uniE620" unicode="&#xe620;" 
d="M971 143l-2 18l-3 17l-3 9l-2 9l-3 9l-4 10l-3 10l-4 9l-8 16l-6 14l-7 13l-5 11l-7 11l-5 9l-10 15l-12 19l-3 5l-1 2v1l2 7l3 6l2 11l2 6v6v5v5v6l-1 4l-2 10l-2 9l-3 8l-3 8l-4 7l-3 7l-3 6l-6 9l-2 3v2l-3 18l-1 11l-2 14l-3 15l-4 17l-3 9l-2 8l-3 9l-3 10l-3 9
l-4 10l-8 19l-5 9l-6 10l-5 9l-6 10l-7 10l-7 8l-8 10l-8 8l-8 8l-9 9l-5 3l-5 4l-11 7l-12 8l-12 7l-13 7l-13 6l-13 6l-14 4l-15 4l-13 4l-15 3l-13 4l-15 1l-14 2l-15 2h-15h-14h-14l-14 -1l-14 -2l-14 -2l-13 -2l-14 -3l-13 -3l-13 -4l-12 -4l-12 -4l-12 -6l-12 -5
l-10 -6l-10 -6l-10 -7l-10 -8l-8 -7l-12 -12l-10 -10l-10 -11l-9 -11l-9 -11l-7 -10l-7 -11l-4 -5l-3 -6l-7 -10l-5 -10l-5 -10l-4 -10l-4 -9l-3 -9l-3 -9l-4 -8l-4 -16l-3 -15l-1 -12l-2 -11v-8v-7v-6l-3 -3l-3 -4l-2 -4l-2 -4l-2 -9l-3 -9v-7l-1 -6v-6l-6 -8l-4 -9l-3 -8
l-2 -7l-2 -7l-2 -6v-6v-6v-5l1 -4l2 -7l1 -6l-3 -3l-9 -6l-12 -11l-7 -7l-7 -6l-5 -5l-4 -5l-9 -9l-8 -10l-7 -8l-8 -11l-7 -11l-7 -12l-7 -11l-5 -11l-5 -11l-4 -10l-4 -11l-3 -11l-3 -11l-3 -10l-2 -10l-1 -9l-2 -10l-1 -18v-17v-7l1 -7l2 -13l1 -6l2 -5l2 -6l1 -3l3 -7
l2 -2l2 -3h1h1h1h7l7 2l7 3l6 4l6 4l5 5l6 5l5 6l5 6l4 6l4 4l2 6l5 8l2 4l1 2v3l1 2h1l2 1h1v-1h1h1l3 -12l2 -10l4 -10l4 -9l4 -9l5 -8l4 -9l4 -7l5 -7l3 -6l10 -12l9 -11l8 -8l8 -7l7 -6l11 -10l4 -2l2 -2v-1l-1 -1h-1h-2l-8 -1l-7 -1l-6 -1l-7 -1l-5 -2l-6 -2l-5 -2
l-4 -3l-5 -1l-3 -3l-3 -2l-4 -3l-4 -5l-2 -3l-2 -2l-3 -6l-2 -5l-1 -5l-1 -4v-6v-3l-1 -4v-4l-1 -4v-3l1 -4l1 -4l2 -7l2 -3l2 -3l2 -3l3 -3l3 -3l2 -3l7 -5l8 -4l8 -5l9 -3l9 -4l11 -2l10 -4l11 -2l12 -2l11 -2l12 -1l24 -3h24h23h10h10h11l9 1l9 1l8 1l13 2l9 3l9 2l17 7
l8 3l7 3l12 7l10 6l8 5l6 5l9 -1l7 -1l14 -1h6h6l4 -1l4 -1l7 -3l8 -2l14 -5l15 -5l14 -4l14 -3l15 -4l15 -2l15 -2l14 -2l14 -1l15 -1h13h14h13l13 1l13 1l12 2l11 3l11 2l11 3l5 1l5 2l9 3l8 4l8 4l8 4l6 5l3 3l3 4l4 4l4 6l1 3l1 3l2 3l1 3v4l1 3l-1 5l-1 4l-2 5l-1 4
l-3 5l-3 5l-3 3l-4 4l-9 7l-10 8l-10 5l-10 6l-23 12l-6 3l-2 2l-1 1l12 11l5 6l4 5l8 12l7 11l6 11l6 10l8 20l7 16l4 12l2 4l2 3l2 2h1h1l6 -12l5 -12l4 -7l4 -5l4 -7l5 -7l4 -5l3 -2l2 -3l2 -1l3 -2l4 -2l3 -1h2h2l2 1l4 1l3 2l3 2l3 3l3 4l2 3l3 5l2 3l2 6l2 4l3 11
l2 12l2 14l1 8v6v7v9z" />
    <glyph glyph-name="uniE621" unicode="&#xe621;" 
d="M897 -28l27 -91l-99 55q-73 -18 -109 -18q-129 0 -218.5 77t-89.5 186.5t89.5 187t218.5 77.5q81 0 151.5 -35.5t113.5 -96.5t43 -132q0 -114 -127 -210zM616 300q-13 0 -24.5 -11.5t-11.5 -25t11.5 -25t24.5 -11.5q20 0 33 11t13 25.5t-13 25.5t-33 11zM816 300
q-14 0 -25 -11.5t-11 -25t11 -25t25 -11.5q19 0 32 11t13 25.5t-13 25.5t-32 11zM385 177q0 -38 11 -76q-18 -1 -34 -1q-13 0 -25 0.5t-27 3t-22.5 4t-27 5.5t-25.5 5l-126 -64l36 110q-145 101 -145 245q0 85 49 156.5t132 112.5t181 41q134 0 238.5 -73t127.5 -183
q-19 2 -35 2q-129 0 -218.5 -84t-89.5 -204zM245 564q-22 0 -38.5 -13t-16.5 -32.5t16.5 -32.5t38.5 -13q20 0 32.5 12.5t12.5 33t-12.5 33t-32.5 12.5zM498 564q-21 0 -37.5 -13t-16.5 -32.5t16.5 -32.5t37.5 -13t33.5 12.5t12.5 33t-12.5 33t-33.5 12.5z" />
    <glyph glyph-name="uniE622" unicode="&#xe622;" 
d="M730 320l15 35q29 92 -54 107q-67 12 -205 -33q34 29 33 73t-30 65q-30 19 -69 18.5t-84 -22.5t-90 -54.5t-86 -76.5t-72.5 -89.5t-50.5 -93t-19 -86.5q0 -44 24.5 -89t71 -84t126.5 -64t180 -25q101 0 183 21t132.5 53t85 71.5t48 75t13.5 65.5q0 37 -15.5 64t-38 39.5
t-44.5 20t-38 8.5zM432 -49.5q-123 -11.5 -215.5 39.5t-100 134.5t73.5 150.5t204 78.5t215.5 -39.5t100.5 -134.5t-73.5 -150.5t-204.5 -78.5zM374 273q-67 -11 -107 -59.5t-30.5 -105.5t63.5 -89.5t120.5 -21t107 60t30.5 105.5t-63.5 89t-120.5 21zM358.5 56
q-21.5 -6 -40.5 4t-24.5 29.5t6 37.5t33 24t40.5 -3.5t24.5 -29.5t-6 -38t-33 -24zM433 141q-11 0 -19 7.5t-8 18.5t8 19t19 8t19 -8t8 -19t-8 -18.5t-19 -7.5zM951 604q-44 57 -113 80.5t-153 11.5q-14 -2 -23 -13.5t-7 -25.5t13.5 -22.5t26.5 -6.5q134 19 201 -66
q30 -39 38 -89t-10 -93q-5 -13 0.5 -26t18.5 -19q7 -2 13 -2q24 0 32 21q25 60 14.5 129t-51.5 121zM718 570q-14 -2 -22.5 -13.5t-6.5 -25.5t13.5 -22.5t25.5 -6.5q49 7 72 -22q10 -13 12.5 -30t-3.5 -32q-5 -13 0.5 -26t18.5 -19q7 -2 13 -2q24 0 33 21q12 32 7 67.5
t-27 62.5q-47 61 -136 48z" />
    <glyph glyph-name="uniE623" unicode="&#xe623;" 
d="M609 384l387 387q20 20 20 48.5t-20 48.5t-48.5 20t-48.5 -20l-387 -387l-387 387q-20 20 -48.5 20t-48.5 -20t-20 -48.5t20 -48.5l387 -387l-387 -387q-20 -20 -20 -48.5t20 -48.5t48.5 -20t48.5 20l387 387l387 -387q20 -20 48.5 -20t48.5 20t20 48.5t-20 48.5z" />
    <glyph glyph-name="uniE624" unicode="&#xe624;" 
d="M909 406q-24 43 -58 75q-18 17 -39 30q38 42 38 99q0 62 -44.5 106t-106.5 44q-17 0 -33 -3q-28 34 -68 54t-86 20t-86 -20t-68 -54q-16 3 -33 3q-62 0 -106.5 -44t-44.5 -106q0 -57 38 -99q-21 -13 -39 -30q-34 -32 -58 -75q-50 -89 -50 -201q0 -48 10 -95q2 -9 9 -14.5
t16 -5.5q3 0 6 1q10 2 15.5 11t3.5 19q-9 41 -9 84q0 95 42 172.5t108 104.5q5 2 9 5q15 15 3 33q-3 4 -8 7q-44 30 -44 83q0 41 29 70t70 29h5q-15 -36 -15 -75q0 -81 57 -138q-33 -19 -62 -47q-45 -42 -77 -100q-68 -121 -68 -272q0 -65 13 -128q2 -9 9.5 -14.5t15.5 -5.5
q3 0 6 1q10 2 16 11t3 19q-12 57 -12 117q0 134 59 242.5t153 146.5q5 2 8 6q16 14 4 32q-3 5 -8 8q-31 20 -48.5 52.5t-17.5 69.5q0 41 22 76l4 6q20 29 51.5 46.5t68.5 17.5t68.5 -17.5t51.5 -46.5l4 -6q22 -35 22 -76q0 -36 -17 -68.5t-48 -52.5q-10 -7 -10.5 -20
t9.5 -21l2 -2q3 -2 6 -3q94 -38 153.5 -147t59.5 -243q0 -60 -13 -117q-2 -10 3.5 -19t16.5 -11q2 -1 5 -1q9 0 16 5.5t9 14.5q14 63 14 128q0 151 -68 272q-33 58 -77 100q-31 29 -65 48q55 57 55 137q0 39 -15 75h5q41 0 70 -29t29 -70q0 -53 -44 -83q-5 -3 -8 -7
q-12 -18 3 -33q4 -3 9 -5q66 -27 108 -104.5t42 -172.5q0 -43 -9 -84q-2 -10 3.5 -19t15.5 -11q3 -1 6 -1q9 0 16 5.5t9 14.5q10 47 10 95q0 112 -50 201z" />
    <glyph glyph-name="uniE625" unicode="&#xe625;" 
d="M949 670q-8 8 -19 7q-130 -6 -278 71q-74 38 -124 78v1h-1q-16 12 -31 -1q-49 -40 -124 -78q-148 -77 -278 -71q-11 1 -19 -7t-8 -19q0 -19 2.5 -51t16.5 -115.5t38 -157.5q49 -147 130 -241q103 -119 253 -146h3v0h2v0h1h1h3q150 27 253 146q81 94 130 241
q24 74 38 157.5t16.5 115.5t2.5 51q0 11 -8 19zM851 343q-101 -307 -339 -351q-237 44 -339 350q-44 133 -53 284q66 1 138 21q68 19 138 56q63 32 116 71q53 -39 116 -71q70 -37 138 -56q72 -20 138 -21q-9 -150 -53 -283zM664 517l-200 -195l-104 99q-8 8 -18.5 7.5
t-17.5 -8t-7 -18t8 -17.5l121 -117q7 -7 17.5 -7t17.5 7l218 212q8 7 8 17.5t-7 18.5t-18 8t-18 -7z" />
    <glyph glyph-name="uniE626" unicode="&#xe626;" 
d="M903 748h-782q-26 0 -44.5 -18.5t-18.5 -44.5v-600q0 -26 18.5 -44.5t44.5 -18.5h782q26 0 44.5 18.5t18.5 44.5v600q0 26 -18.5 44.5t-44.5 18.5zM915 85q0 -5 -3.5 -8.5t-8.5 -3.5h-782q-5 0 -8.5 3.5t-3.5 8.5v600q0 5 3.5 8.5t8.5 3.5h782q5 0 8.5 -3.5t3.5 -8.5
v-600zM858.5 578q-5.5 9 -15.5 12t-19 -2l-312 -169l-312 169q-9 5 -19 2t-15.5 -12t-2.5 -19t13 -16l138 -75l-148 -236q-5 -9 -3 -19.5t11 -16.5q7 -4 14 -4q14 0 22 12l149 240l141 -77q6 -3 12 -3t12 3l141 77l149 -240q8 -12 22 -12q7 0 14 4q9 6 11 16.5t-3 19.5
l-148 236l138 75q10 6 13 16t-2.5 19z" />
    <glyph glyph-name="uniE627" unicode="&#xe627;" 
d="M922 -128h-820q-37 0 -64 26.5t-27 64.5v819q0 37 27 64t64 27h456h60h31q12 0 21 -9t9 -21.5t-9 -21.5t-21 -9h-31h-60h-425q-25 0 -43 -18t-18 -43v-758q0 -25 18 -42.5t43 -17.5h758q25 0 43 17.5t18 42.5v485v56v5q0 13 9 21.5t21.5 8.5t21.5 -8.5t9 -21.5v-61v-515
q0 -38 -27 -64.5t-64 -26.5zM426 274q-9 -9 -21.5 -9t-21.5 9t-9 21.5t9 21.5l546 547q8 9 21 9t21.5 -9t8.5 -21.5t-9 -21.5z" />
    <glyph glyph-name="uniE628" unicode="&#xe628;" 
d="M670 314zM386 136l290 167l-290 168v-335zM841 673h-204l77 126q5 8 2.5 17.5t-10.5 14.5t-17.5 2.5t-14.5 -10.5l-91 -150h-142l-91 150q-5 8 -14.5 10.5t-17.5 -2.5t-10.5 -14.5t2.5 -17.5l77 -126h-204q-49 0 -84 -35t-35 -84v-501q0 -50 35 -85t84 -35h658
q49 0 84 35t35 85v501q0 49 -35 84t-84 35zM734 283l-360 -207q-5 -3 -11.5 -3t-11.5 3q-11 6 -11 20v415q0 13 11.5 20t22.5 0l360 -208q11 -6 11 -19.5t-11 -20.5z" />
    <glyph glyph-name="uniE629" unicode="&#xe629;" 
d="M841 673h-204l77 126q5 8 2.5 17.5t-10.5 14.5t-17.5 2.5t-14.5 -10.5l-91 -150h-142l-91 150q-5 8 -14.5 10.5t-17.5 -2.5t-10.5 -14.5t2.5 -17.5l77 -126h-204q-49 0 -84 -35t-35 -84v-501q0 -50 35 -85t84 -35h658q49 0 84 35t35 85v501q0 49 -35 84t-84 35zM914 53
q0 -31 -21.5 -52t-51.5 -21h-658q-30 0 -51.5 21t-21.5 52v501q0 30 21.5 51.5t51.5 21.5h245v0h168v0h245q30 0 51.5 -21.5t21.5 -51.5v-501zM734 323l-360 208q-11 7 -22.5 0t-11.5 -20v-415q0 -14 11 -20q5 -3 11.5 -3t11.5 3l360 207q11 7 11 20.5t-11 19.5zM386 136
v335l290 -168z" />
    <glyph glyph-name="uniE62A" unicode="&#xe62a;" 
d="M618 734h-553v-552h553v552zM512 287h-342v342h342v-342zM512 129h106v-105h-106v105zM696 734h106v-105h-106v105zM65 129h368v-105h-368v105zM696 550h106v-368h-106v368zM249 550h184v-184h-184v184zM696 -134h264v263h-264v-263zM775 50h106v-105h-106v105zM854 287
h106v-105h-106v105zM854 734h106v-368h-106v368zM65 -29h105v-105h-105v105zM249 -29h395v-105h-395v105z" />
    <glyph glyph-name="uniE62B" unicode="&#xe62b;" 
d="M769 432l-126 126l63 63q16 16 38 16t38 -16l50 -50q16 -16 16 -38t-16 -38zM403 67l-126 125l343 340l126 -126zM176 -37l77 205l125 -125z" />
    <glyph glyph-name="uniE62C" unicode="&#xe62c;" 
d="M971 668h-918q-22 0 -37.5 -15.5t-15.5 -37.5v-630q0 -22 15.5 -37.5t37.5 -15.5h918q22 0 37.5 15.5t15.5 37.5v630q0 22 -15.5 37.5t-37.5 15.5zM479.5 99.5q-1.5 -9.5 -4.5 -14.5q-2 -3 -12.5 -6t-26.5 -6t-34.5 -5.5t-37.5 -4t-37 -2.5t-31 -1t-30.5 1t-36.5 3t-37 3
q-18 2 -33.5 4.5t-26 5t-13.5 4.5q-4 4 -6.5 22.5t1.5 48.5q3 17 14 25.5t26 14t30.5 9.5t28.5 12q9 6 14.5 11.5t7.5 11t2 11.5v13q-1 11 -7.5 17t-14.5 12q-3 3 -6 9t-5 12q-2 7 -5 15q-3 1 -6 3t-6 6.5t-5.5 12t-2 14t2.5 10.5q2 6 6 10q0 17 2 35q2 15 6.5 31.5
t14.5 30.5q8 12 19 20.5t22 13t22.5 6t21.5 1.5q27 0 48.5 -11.5t31.5 -24.5q12 -14 18 -32t8 -34q3 -18 2 -36q3 -2 5 -6q2 -3 3 -8t0 -13q-1 -9 -4 -15t-6 -10q-4 -3 -9 -4q-2 -8 -4 -15q-2 -6 -5.5 -12t-7.5 -8q-4 -4 -7.5 -6.5t-6 -5.5t-4.5 -7t-3 -9q-1 -7 -1 -14.5
t3.5 -14.5t10.5 -13t20 -11q12 -5 25.5 -8.5t26 -8.5t22.5 -12.5t14 -19.5q2 -7 3.5 -17.5t1.5 -22t-1.5 -21zM888 140h-288q-10 0 -17 7t-7 16.5t7 17t17 7.5h288q10 0 17 -7.5t7 -17t-7 -16.5t-17 -7zM888 283h-288q-10 0 -17 7t-7 17t7 17t17 7h288q10 0 17 -7t7 -17
t-7 -17t-17 -7zM888 428h-288q-10 0 -17 7t-7 17t7 17t17 7h288q10 0 17 -7t7 -17t-7 -17t-17 -7z" />
    <glyph glyph-name="uniE62D" unicode="&#xe62d;" 
d="M512 894q-104 0 -198.5 -40.5t-163 -109t-109 -163t-40.5 -198.5t40.5 -198.5t109 -163t163 -109t198.5 -40.5t198.5 40.5t163 109t109 163t40.5 198.5t-40.5 198.5t-109 163t-163 109t-198.5 40.5zM512 -68q-92 0 -175.5 35.5t-143.5 96t-96 144t-36 175.5t36 175.5
t96 143.5t143.5 96t175.5 36t175.5 -36t143.5 -96t96 -143.5t36 -175.5t-36 -175.5t-96 -144t-143.5 -96t-175.5 -35.5zM512 638q-18 0 -30.5 -12.5t-12.5 -29.5v-277q0 -18 12.5 -30.5t30.5 -12.5t30.5 12.5t12.5 30.5v277q-1 17 -13 29.5t-30 12.5zM512 213
q-18 0 -30.5 -12.5t-12.5 -30.5t12.5 -30.5t30.5 -12.5t30.5 12.5t12 30.5t-12.5 30.5t-30 12.5zM512 213z" />
    <glyph glyph-name="uniE62E" unicode="&#xe62e;" 
d="M653 723q26 32 36 69t8.5 58.5t-6.5 26.5q-4 4 -27 -1t-58.5 -26.5t-61.5 -55.5q-14 -20 -24.5 -42.5t-15.5 -40.5t-6.5 -34t-1 -25.5t2.5 -11.5q5 -4 28 -0.5t60 25t66 58.5zM794 365q-2 29 7.5 57t22 46.5t31 36.5t28 25t19.5 14v6q-3 5 -9.5 11.5t-27 24t-43 30.5
t-56.5 22.5t-68 7.5q-40 -3 -91 -23.5t-76 -20.5q-31 0 -93.5 22t-98.5 22q-20 0 -45.5 -6.5t-58.5 -25.5t-60.5 -47.5t-48 -78t-24.5 -110.5q-4 -77 17.5 -158t56 -141.5t68 -103t57.5 -58.5q28 -19 54 -22.5t48 3.5t58 25q17 10 50.5 14t74 -2.5t67.5 -24.5
q151 -55 288 250q-6 0 -20 4.5t-35.5 18.5t-41 35t-34.5 59.5t-16 87.5z" />
    <glyph glyph-name="uniE62F" unicode="&#xe62f;" 
d="M244 137q0 -25 18 -43.5t43 -18.5h43q-2 -8 -2 -16v-125q0 -25 17 -42t40.5 -17t40.5 17t17 42v125q0 8 -2 16h106q-2 -8 -2 -16v-125q0 -25 17 -42t40.5 -17t40.5 17t17 42v125q0 8 -2 16h43q25 0 43 18.5t18 43.5v434h-536v-434zM148 571q-23 0 -40 -17.5t-17 -41.5
v-253q0 -24 17 -41.5t40.5 -17.5t40.5 17.5t17 41.5v253q0 24 -17 41.5t-41 17.5zM876 571q-24 0 -41 -17.5t-17 -41.5v-253q0 -24 17 -41.5t40.5 -17.5t40.5 17.5t17 41.5v253q0 24 -17 41.5t-40 17.5zM644 807l45 70q5 8 -3 13.5t-13 -2.5l-25 -39l-11 -17l-11 -17
q-54 22 -114 22t-114 -22l-21 34l-26 39q-5 8 -13 2.5t-3 -13.5l45 -70q-62 -29 -99 -82t-37 -115h536q0 62 -37 115t-99 82zM397 689q-12 0 -20 8.5t-8 21t8 21t20 8.5t20.5 -8.5t8.5 -21t-8.5 -21t-20.5 -8.5zM627 689q-12 0 -20.5 8.5t-8.5 21t8.5 21t20.5 8.5t20.5 -8.5
t8.5 -21t-8.5 -21t-20.5 -8.5zM627 689zM246 138q0 -26 18 -44.5t43 -18.5h44q-3 -8 -3 -16v-125q0 -24 17 -41.5t41 -17.5t40.5 17.5t16.5 41.5v125q0 8 -2 16h106q-2 -8 -2 -16v-125q0 -24 17 -41.5t40.5 -17.5t40.5 17.5t17 41.5v125q0 8 -2 16h43q26 0 43.5 18.5
t17.5 44.5v433h-536v-433zM151 571q-24 0 -41 -17t-17 -42v-253q0 -24 17 -41.5t40.5 -17.5t40.5 17.5t17 41.5v253q0 25 -17 42t-40 17zM878 571q-24 0 -41 -17t-17 -42v-253q0 -24 17 -41.5t41 -17.5t40.5 17.5t16.5 41.5v253q0 25 -16.5 42t-40.5 17zM646 808l45 70
q6 8 -2 13.5t-14 -3.5l-25 -39l-11 -17l-11 -16q-54 21 -114 21t-114 -21l-21 33l-26 39q-5 9 -13 3.5t-3 -13.5l45 -70q-62 -30 -99 -82.5t-37 -114.5h536q0 62 -37 114.5t-99 82.5zM399 689q-12 0 -20 9t-8 21t8 20.5t20 8.5t20.5 -8.5t8.5 -20.5t-8.5 -21t-20.5 -9z
M629 689q-12 0 -20.5 9t-8.5 21t8.5 20.5t20.5 8.5t20.5 -8.5t8.5 -20.5t-8.5 -21t-20.5 -9zM629 689z" />
    <glyph glyph-name="uniE630" unicode="&#xe630;" 
d="M553 385l242 241q9 8 9 20t-8.5 21t-20.5 9t-21 -9l-242 -241l-240 241q-8 9 -20.5 9t-21 -9t-8.5 -21t9 -20l240 -241l-242 -240q-9 -9 -9 -21t8.5 -20.5t20.5 -8.5t21 8l242 241l242 -243q8 -9 20.5 -9t21 8.5t8.5 21t-9 20.5zM553 385z" />
    <glyph glyph-name="uniE631" unicode="&#xe631;" 
d="M426 110q-15 0 -24 10l-220 242q-9 10 -8 23.5t11 22.5t23 8.5t22 -10.5l196 -216l415 458q9 10 22.5 10.5t23 -8.5t10.5 -22.5t-8 -23.5l-439 -484q-10 -10 -24 -10z" />
    <glyph glyph-name="uniE632" unicode="&#xe632;" 
d="M61 502q0 26 19 44.5t46 18.5h64v-287h-64q-27 0 -46 18.5t-19 44.5v161zM777 765q44 42 79.5 46t63.5 -19t47 -67t31.5 -99t18.5 -114.5t6 -114t-7.5 -108.5t-22.5 -101.5t-35 -83.5t-44.5 -53.5t-52.5 -12t-59 39.5q-29 35 -80 58t-110.5 39t-121 25.5t-112.5 17.5
t-85.5 15t-38.5 17v320q4 14 32.5 23.5t72 17.5t98 18t111 26.5t111 42.5t98.5 67zM409 139q5 -13 12 -27q6 -13 16.5 -30.5t24.5 -37.5q17 -25 35 -52t27 -49t5.5 -36.5t-28.5 -14.5h-59q-20 0 -37.5 8t-33 23.5t-32.5 40t-37 58.5q-23 39 -32.5 68t-12.5 49q-4 22 0 39
q9 -2 20 -5l23 -5q13 -3 30 -6q17 -4 31 -7.5t25 -7.5q13 -4 23 -8z" />
    <glyph glyph-name="uniE633" unicode="&#xe633;" 
d="M512 365l401 -423h-802zM512 826l-442 -331v-510l302 323l-224 176l364 273l364 -273l-224 -176l302 -319v506zM512 826z" />
    <glyph glyph-name="uniE634" unicode="&#xe634;" 
d="M91 48l327 331l94 -77l92 78l321 -332h-834zM59 114q0 -9 3 -19l313 319l-316 256v-556zM936 720l-424 -336l-424 336h848zM965 668l-315 -253l312 -320q3 10 3 19v554z" />
    <glyph glyph-name="uniE635" unicode="&#xe635;" 
d="M511 -34q-134 0 -242 79q-106 78 -147 202q-3 11 2 21t15.5 13.5t20.5 -1.5t14 -16q35 -110 128 -177t209 -67q89 0 167.5 41.5t127.5 116.5q7 9 18 11t20 -4t11.5 -17t-4.5 -20q-57 -86 -147 -134t-193 -48zM848 482q-18 0 -25 17q-39 103 -130.5 166.5t-201.5 63.5
q-91 0 -170.5 -43.5t-128.5 -120.5q-6 -9 -17 -11.5t-20.5 3.5t-12 17t3.5 20q57 89 148.5 139t196.5 50q130 0 235 -74q103 -73 148 -190q4 -11 -1 -21t-15 -14q-5 -2 -10 -2zM268 549l-159 -84l-13 178l71 -68zM729 194l165 73l1 -178l-67 72z" />
    <glyph glyph-name="uniE636" unicode="&#xe636;" 
d="M944 71h-48v237q0 65 -48 65h-127q-49 0 -49 -65v-237h-48v626q0 65 -49 65h-126q-49 0 -49 -65v-626h-48v368q0 64 -49 64h-127q-48 0 -48 -64v-368h-33q-13 0 -22 -9.5t-9 -22.5t9 -23t22 -10h833q13 0 22.5 9.5t9.5 23.5v4q0 10 -0.5 14.5t-4 9t-11.5 4.5zM303 317
v-28h-128v22q23 31 51 49q40 28 38 41q0 21 -23 21q-24 0 -30 -27l-35 7q11 48 69 48q54 -2 58 -45q3 -31 -38 -52q-26 -17 -44 -36h82zM544 545h-40v107q-12 -19 -40 -27v40l7 3q3 2 6 4.5t4.5 4t4.5 5t4.5 5.5t6.5 8t8 10h39v-160zM782 156q-51 -3 -64 39l38 8
q4 -23 29 -23q23 0 25 22q0 22 -37 22h-15v26h14q33 0 33 21q0 20 -21 20q-21 -2 -26 -23l-36 7q11 41 65 41q52 -1 56 -40q0 -30 -36 -37v-1q38 -5 39 -38q-3 -44 -64 -44z" />
    <glyph glyph-name="uniE637" unicode="&#xe637;" 
d="M232 540h-126q-12 0 -20.5 8.5t-8.5 20.5t8.5 20.5t20.5 8.5h126q12 0 20.5 -8.5t8.5 -20.5t-8.5 -20.5t-20.5 -8.5zM275 170h-169q-12 0 -20.5 8.5t-8.5 20.5t8.5 20.5t20.5 8.5h169q12 0 20.5 -8.5t8.5 -20.5t-8.5 -20.5t-20.5 -8.5zM918 540h-520q-12 0 -20.5 8.5
t-8.5 20.5t8.5 20.5t20.5 8.5h520q12 0 20.5 -8.5t8.5 -20.5t-8.5 -20.5t-20.5 -8.5zM918 170h-477q-12 0 -20.5 8.5t-8.5 20.5t8.5 20.5t20.5 8.5h477q12 0 20.5 -8.5t8.5 -20.5t-8.5 -20.5t-20.5 -8.5zM644 -57h-4q-12 2 -19 11.5t-6 21.5l117 824q2 12 11.5 19t21.5 5.5
t19.5 -11t5.5 -21.5l-117 -824q-1 -11 -9.5 -18t-19.5 -7zM274 -57h-4q-12 2 -19 11.5t-6 21.5l117 824q2 12 11.5 19t21.5 5.5t19.5 -11t5.5 -21.5l-117 -824q-2 -11 -10 -18t-19 -7z" />
  </font>
</defs>
</svg>
